<?xml version="1.0" encoding="UTF-8"?>
<svg xmlns="http://www.w3.org/2000/svg" width="350" height="256" viewBox="0 0 350 256">
  <rect width="350" height="256" fill="#0d1117" rx="8"/>
  <rect x="0" y="0" width="350" height="44" fill="#161b22"/>
  <rect x="0" y="43" width="350" height="1" fill="#30363d"/>
  <circle cx="24" cy="22" r="10" fill="#0d9488"/>
  <text x="25" y="27" font-family="sans-serif" font-weight="bold" font-size="15.5" fill="white" text-anchor="middle" transform="rotate(6, 24, 22)">/`</text>
  <text x="140.3623046875" y="27" font-family="monospace" font-size="12" fill="#8b949e" text-anchor="start">file-tree</text>
  
        <g transform="translate(28, 62)"><svg stroke="currentColor" fill="currentColor" stroke-width="0" viewBox="0 0 512 512" color="#79c0ff" style="color:#79c0ff" height="16" width="16" xmlns="http://www.w3.org/2000/svg"><path d="M464 128H272l-64-64H48C21.49 64 0 85.49 0 112v288c0 26.51 21.49 48 48 48h416c26.51 0 48-21.49 48-48V176c0-26.51-21.49-48-48-48z"></path></svg></g>
        <text x="52" y="74" font-family="monospace" font-size="14" fill="#79c0ff" xml:space="preserve">src/</text>
      
  
      <text x="28" y="96" font-family="monospace" font-size="14" fill="#484f58" xml:space="preserve">├── </text>
      <g transform="translate(58.7890625, 84)"><svg stroke="currentColor" fill="currentColor" stroke-width="0" viewBox="0 0 512 512" color="#79c0ff" style="color:#79c0ff" height="16" width="16" xmlns="http://www.w3.org/2000/svg"><path d="M464 128H272l-64-64H48C21.49 64 0 85.49 0 112v288c0 26.51 21.49 48 48 48h416c26.51 0 48-21.49 48-48V176c0-26.51-21.49-48-48-48z"></path></svg></g>
      <text x="82.7890625" y="96" font-family="monospace" font-size="14" fill="#79c0ff" xml:space="preserve">br/</text>
    
  
      <text x="28" y="118" font-family="monospace" font-size="14" fill="#484f58" xml:space="preserve">│   └── </text>
      <g transform="translate(89.578125, 106)"><svg stroke="currentColor" fill="currentColor" stroke-width="0" viewBox="0 0 512 512" color="#79c0ff" style="color:#79c0ff" height="16" width="16" xmlns="http://www.w3.org/2000/svg"><path d="M464 128H272l-64-64H48C21.49 64 0 85.49 0 112v288c0 26.51 21.49 48 48 48h416c26.51 0 48-21.49 48-48V176c0-26.51-21.49-48-48-48z"></path></svg></g>
      <text x="113.578125" y="118" font-family="monospace" font-size="14" fill="#79c0ff" xml:space="preserve">com/</text>
    
  
      <text x="28" y="140" font-family="monospace" font-size="14" fill="#484f58" xml:space="preserve">│       └── </text>
      <g transform="translate(120.3671875, 128)"><svg stroke="currentColor" fill="currentColor" stroke-width="0" viewBox="0 0 512 512" color="#79c0ff" style="color:#79c0ff" height="16" width="16" xmlns="http://www.w3.org/2000/svg"><path d="M464 128H272l-64-64H48C21.49 64 0 85.49 0 112v288c0 26.51 21.49 48 48 48h416c26.51 0 48-21.49 48-48V176c0-26.51-21.49-48-48-48z"></path></svg></g>
      <text x="144.3671875" y="140" font-family="monospace" font-size="14" fill="#79c0ff" xml:space="preserve">models/</text>
    
  
      <text x="28" y="162" font-family="monospace" font-size="14" fill="#484f58" xml:space="preserve">│           ├── </text>
      <g transform="translate(151.15625, 150)"><svg stroke="currentColor" fill="currentColor" stroke-width="0" viewBox="0 0 16 16" color="#9ca3af" style="color:#9ca3af" height="16" width="16" xmlns="http://www.w3.org/2000/svg"><path fill-rule="evenodd" clip-rule="evenodd" d="M13.71 4.29l-3-3L10 1H4L3 2v12l1 1h9l1-1V5l-.29-.71zM13 14H4V2h5v4h4v8zm-3-9V2l3 3h-3z"></path></svg></g>
      <text x="175.15625" y="162" font-family="monospace" font-size="14" fill="#e6edf3" xml:space="preserve">Pessoa.java</text>
    
  
      <text x="28" y="184" font-family="monospace" font-size="14" fill="#484f58" xml:space="preserve">│           ├── </text>
      <g transform="translate(151.15625, 172)"><svg stroke="currentColor" fill="currentColor" stroke-width="0" viewBox="0 0 16 16" color="#9ca3af" style="color:#9ca3af" height="16" width="16" xmlns="http://www.w3.org/2000/svg"><path fill-rule="evenodd" clip-rule="evenodd" d="M13.71 4.29l-3-3L10 1H4L3 2v12l1 1h9l1-1V5l-.29-.71zM13 14H4V2h5v4h4v8zm-3-9V2l3 3h-3z"></path></svg></g>
      <text x="175.15625" y="184" font-family="monospace" font-size="14" fill="#e6edf3" xml:space="preserve">PessoaFisica.java</text>
    
  
      <text x="28" y="206" font-family="monospace" font-size="14" fill="#484f58" xml:space="preserve">│           └── </text>
      <g transform="translate(151.15625, 194)"><svg stroke="currentColor" fill="currentColor" stroke-width="0" viewBox="0 0 16 16" color="#9ca3af" style="color:#9ca3af" height="16" width="16" xmlns="http://www.w3.org/2000/svg"><path fill-rule="evenodd" clip-rule="evenodd" d="M13.71 4.29l-3-3L10 1H4L3 2v12l1 1h9l1-1V5l-.29-.71zM13 14H4V2h5v4h4v8zm-3-9V2l3 3h-3z"></path></svg></g>
      <text x="175.15625" y="206" font-family="monospace" font-size="14" fill="#e6edf3" xml:space="preserve">PessoaJuridica.java</text>
    
  
      <text x="28" y="228" font-family="monospace" font-size="14" fill="#484f58" xml:space="preserve">└── </text>
      <g transform="translate(58.7890625, 216)"><svg stroke="currentColor" fill="currentColor" stroke-width="0" viewBox="0 0 16 16" color="#9ca3af" style="color:#9ca3af" height="16" width="16" xmlns="http://www.w3.org/2000/svg"><path fill-rule="evenodd" clip-rule="evenodd" d="M13.71 4.29l-3-3L10 1H4L3 2v12l1 1h9l1-1V5l-.29-.71zM13 14H4V2h5v4h4v8zm-3-9V2l3 3h-3z"></path></svg></g>
      <text x="82.7890625" y="228" font-family="monospace" font-size="14" fill="#e6edf3" xml:space="preserve">App.java</text>
    
</svg>